<?xml version="1.0" standalone="no"?>
<!DOCTYPE svg PUBLIC "-//W3C//DTD SVG 1.1//EN"
  "http://www.w3.org/Graphics/SVG/1.1/DTD/svg11.dtd">
<svg version="1.1" xmlns="http://www.w3.org/2000/svg" xmlns:xlink="http://www.w3.org/1999/xlink" width="1792" height="1063" viewBox="-992 -32 1792 1063" id="ccdiagram"><filter id="grayscale"><feColorMatrix type="matrix" values="0.3333 0.3333 0.3333 0 0 0.3333 0.3333 0.3333 0 0 0.3333 0.3333 0.3333 0 0 0 0 0 1 0"></feColorMatrix></filter><defs><style type="text/css">@import url('https://fonts.googleapis.com/css?family=Open+Sans:400,700|Inconsolata:400');</style></defs><g><g style="pointer-events: none;"><g><pattern id="gridPatternMinor" x="0" y="37" width="128" height="74" patternUnits="userSpaceOnUse"><path d="M 0 0 L 128 74" stroke="#eee" stroke-width="1"></path><path d="M 128 0 L 0 74" stroke="#eee" stroke-width="1"></path></pattern><polygon points="0 0, 768 444, -192 999, -960 555" fill="url(#gridPatternMinor)"></polygon></g><polygon points="-960 555, -960 565, -192 1009, -192 999" stroke-linejoin="round" stroke="#54626f" stroke-width="1" fill="#f9f9f9"></polygon><polygon points="-192 1009, 768 454, 768 444, -192 999" stroke-linejoin="round" stroke="#54626f" stroke-width="1" fill="#e2e2e2"></polygon></g><g pointer-events="auto"><g opacity="1"><g id="35155d75-a622-4a82-bd9c-6475b766e114"><svg x="-48" y="250" overflow="visible"><g fill="#e8e8e8"><polygon points="0 0, 128 74, -208 268, -336 194" stroke="#e8e8e8" stroke-width="40"></polygon></g></svg></g></g><g opacity="1"><g id="d3caf0f6-9837-4e1d-95db-210e74b8cc15"><svg x="128" y="352" overflow="visible"><g fill="#e8e8e8"><polygon points="0 0, 96 56, -240 250, -336 194" stroke="#e8e8e8" stroke-width="40"></polygon></g></svg></g></g><g opacity="1"><g><g><polygon points="-416 444, -320 500, -368 527, -400 527, -464 490, -464 472" fill="#4286c5" stroke-width="0" stroke="#818181"></polygon></g></g></g><g opacity="1"><g><g><polygon points="-224 555, -128 611, -176 638, -208 638, -272 601, -272 583" fill="#4286c5" stroke-width="0" stroke="#818181"></polygon></g></g></g></g><g style="pointer-events: none;"><g><pattern id="gridPatternMajor" x="0" y="37" width="128" height="74" patternUnits="userSpaceOnUse"><path d="M 64 0 L 128 37 64 74 0 37 z" stroke="#54626f" stroke-width="1" fill="none"></path></pattern><polygon points="0 0, 768 444, -192 999, -960 555" fill="url(#gridPatternMajor)"></polygon></g></g><g pointer-events="auto"><g opacity="1"><g id="59175e70-ad8d-4cca-96c2-4ac3fa7dcb6f"><g><g><polygon points="-224 986, -160 986, 10 888, 10 851, -192 734, -394 851, -394 888" stroke="#3f51b5" stroke-width="8" fill="none"></polygon></g><g><polygon points="-192 734, -224 716, -394 814, -394 851" stroke="#3f51b5" stroke-width="8" fill="#3f51b5"></polygon><text font-family="Inconsolata" font-size="20pt" font-weight="bold" fill="#ffffff" transform="translate(-239 751) matrix(0.707 -0.409 0.707 0.409 0 0)" text-anchor="end">sgLoadBalancer</text><g transform="translate(-224 725) matrix(0.707 0.409 -0.707 0.409 0 0)"><svg width="23" height="32" style="fill: rgb(255, 255, 255);"><svg xmlns="http://www.w3.org/2000/svg" width="23" height="32" viewBox="0 0 23 32"><path d="M19.429 17.143V5.714h-8v20.304c.911-.482 2.375-1.321 3.804-2.446 1.911-1.5 4.196-3.839 4.196-6.429zm3.428-13.714v13.714c0 7.518-10.518 12.268-10.964 12.464a1.049 1.049 0 0 1-.928 0C10.519 29.411.001 24.661.001 17.143V3.429c0-.625.518-1.143 1.143-1.143h20.571c.625 0 1.143.518 1.143 1.143z"></path></svg></svg></g></g></g></g></g><g opacity="1"><g id="94246bbf-37df-4e28-a24c-612914e93428"><g><g><polygon points="128 296, 192 296, 384 185, 384 148, 160 19, -64 148, -64 185" stroke="#3f51b5" stroke-width="8" fill="none"></polygon></g><g><polygon points="160 19, 128 0, -64 111, -64 148" stroke="#3f51b5" stroke-width="8" fill="#3f51b5"></polygon><text font-family="Inconsolata" font-size="20pt" font-weight="bold" fill="#ffffff" transform="translate(113 36) matrix(0.707 -0.409 0.707 0.409 0 0)" text-anchor="end">BastionSSHAccess</text><g transform="translate(128 9) matrix(0.707 0.409 -0.707 0.409 0 0)"><svg width="23" height="32" style="fill: rgb(255, 255, 255);"><svg xmlns="http://www.w3.org/2000/svg" width="23" height="32" viewBox="0 0 23 32"><path d="M19.429 17.143V5.714h-8v20.304c.911-.482 2.375-1.321 3.804-2.446 1.911-1.5 4.196-3.839 4.196-6.429zm3.428-13.714v13.714c0 7.518-10.518 12.268-10.964 12.464a1.049 1.049 0 0 1-.928 0C10.519 29.411.001 24.661.001 17.143V3.429c0-.625.518-1.143 1.143-1.143h20.571c.625 0 1.143.518 1.143 1.143z"></path></svg></svg></g></g></g></g></g><g opacity="1"><g id="1e356c8f-eccd-4901-8752-229157748fc7"><g><g><polygon points="288 672, 352 672, 522 574, 522 537, 320 420, 118 537, 118 574" stroke="#2196f3" stroke-width="8" fill="none"></polygon></g><g><polygon points="320 420, 288 401, 118 500, 118 537" stroke="#2196f3" stroke-width="8" fill="#2196f3"></polygon><text font-family="Inconsolata" font-size="20pt" font-weight="bold" fill="#ffffff" transform="translate(273 437) matrix(0.707 -0.409 0.707 0.409 0 0)" text-anchor="end">PrivateLANA...</text><g transform="translate(288 410) matrix(0.707 0.409 -0.707 0.409 0 0)"><svg width="23" height="32" style="fill: rgb(255, 255, 255);"><svg xmlns="http://www.w3.org/2000/svg" width="23" height="32" viewBox="0 0 23 32"><path d="M19.429 17.143V5.714h-8v20.304c.911-.482 2.375-1.321 3.804-2.446 1.911-1.5 4.196-3.839 4.196-6.429zm3.428-13.714v13.714c0 7.518-10.518 12.268-10.964 12.464a1.049 1.049 0 0 1-.928 0C10.519 29.411.001 24.661.001 17.143V3.429c0-.625.518-1.143 1.143-1.143h20.571c.625 0 1.143.518 1.143 1.143z"></path></svg></svg></g></g></g></g></g></g><g></g><g pointer-events="auto"></g><g></g><g pointer-events="auto"></g><g pointer-events="none"></g><g pointer-events="auto"><g><g cursor="cell"><line x1="-168" y1="273" x2="-112" y2="305" stroke="red" stroke-width="8" opacity="0"></line><line x1="-168" y1="273" x2="-112" y2="305" stroke="#000000" stroke-width="2" stroke-linecap="round"></line></g></g><g><g cursor="cell"><line x1="520" y1="375" x2="416" y2="315" stroke="red" stroke-width="8" opacity="0"></line><line x1="520" y1="375" x2="416" y2="315" stroke="#000000" stroke-width="2" stroke-linecap="round"></line></g></g><g><g cursor="cell"><line x1="-112" y1="509" x2="-26" y2="459" stroke="red" stroke-width="8" opacity="0"></line><line x1="-112" y1="509" x2="-26" y2="459" stroke="#000000" stroke-width="2" stroke-linecap="round"></line><polygon points="-16 453, -42 459, -28 460, -25 468, -16 453" stroke-linejoin="round" fill="#000000" stroke="#000000" stroke-width="1"></polygon></g></g><g><g cursor="cell"><line x1="-320" y1="555" x2="-125" y2="512" stroke="red" stroke-width="8" opacity="0"></line><line x1="-320" y1="555" x2="-125" y2="512" stroke="#000000" stroke-width="2" stroke-linecap="round"></line><polygon points="-112 509, -139 508, -128 512, -131 520, -112 509" stroke-linejoin="round" fill="#000000" stroke="#000000" stroke-width="1"></polygon></g></g><g><g cursor="cell"><line x1="-328" y1="347" x2="-80" y2="490" stroke="red" stroke-width="8" opacity="0"></line><line x1="-328" y1="347" x2="-80" y2="490" stroke="#000000" stroke-width="2" stroke-linecap="round"></line></g></g><g><g cursor="cell"><line x1="-367" y1="582" x2="-320" y2="555" stroke="red" stroke-width="8" opacity="0"></line><line x1="-367" y1="582" x2="-320" y2="555" stroke="#000000" stroke-width="2" stroke-linecap="round"></line></g></g><g><g cursor="cell"><line x1="-160" y1="333" x2="-112" y2="305" stroke="red" stroke-width="8" opacity="0"></line><line x1="-160" y1="333" x2="-112" y2="305" stroke="#000000" stroke-width="2" stroke-linecap="round"></line></g></g><g><g cursor="cell"><line x1="-496" y1="657" x2="-458" y2="635" stroke="red" stroke-width="8" opacity="0"></line><line x1="-496" y1="657" x2="-458" y2="635" stroke="#000000" stroke-width="2" stroke-linecap="round"></line><polygon points="-448 629, -474 634, -460 636, -457 644, -448 629" stroke-linejoin="round" fill="#000000" stroke="#000000" stroke-width="1"></polygon></g></g><g><g cursor="cell"><line x1="192" y1="185" x2="320" y2="259" stroke="red" stroke-width="8" opacity="0"></line><line x1="192" y1="185" x2="320" y2="259" stroke="#000000" stroke-width="2" stroke-linecap="round"></line></g></g><g><g cursor="cell"><line x1="48" y1="250" x2="192" y2="333" stroke="red" stroke-width="8" opacity="0"></line><line x1="48" y1="250" x2="192" y2="333" stroke="#000000" stroke-width="2" stroke-linecap="round"></line></g></g><g><g cursor="cell"><line x1="-320" y1="555" x2="-290" y2="415" stroke="red" stroke-width="8" opacity="0"></line><line x1="-320" y1="555" x2="-290" y2="415" stroke="#000000" stroke-width="2" stroke-linecap="round"></line><polygon points="-288 407, -302 420, -290 417, -280 422, -288 407" stroke-linejoin="round" fill="#000000" stroke="#000000" stroke-width="1"></polygon></g></g><g><g cursor="cell"><line x1="-80" y1="490" x2="-112" y2="509" stroke="red" stroke-width="8" opacity="0"></line><line x1="-80" y1="490" x2="-112" y2="509" stroke="#000000" stroke-width="2" stroke-linecap="round"></line></g></g><g><g cursor="cell"><line x1="320" y1="259" x2="160" y2="352" stroke="red" stroke-width="8" opacity="0"></line><line x1="320" y1="259" x2="160" y2="352" stroke="#000000" stroke-width="2" stroke-linecap="round"></line></g></g><g><g cursor="cell"><line x1="-367" y1="582" x2="-320" y2="555" stroke="red" stroke-width="8" opacity="0"></line><line x1="-367" y1="582" x2="-320" y2="555" stroke="#000000" stroke-width="2" stroke-linecap="round"></line></g></g><g><g cursor="cell"><line x1="-556" y1="691" x2="-496" y2="657" stroke="red" stroke-width="8" opacity="0"></line><line x1="-556" y1="691" x2="-496" y2="657" stroke="#000000" stroke-width="2" stroke-linecap="round"></line></g></g><g><g cursor="cell"><line x1="-288" y1="407" x2="-202" y2="357" stroke="red" stroke-width="8" opacity="0"></line><line x1="-288" y1="407" x2="-202" y2="357" stroke="#000000" stroke-width="2" stroke-linecap="round"></line><polygon points="-192 352, -218 357, -204 359, -201 366, -192 352" stroke-linejoin="round" fill="#000000" stroke="#000000" stroke-width="1"></polygon></g></g><g><g cursor="cell"><line x1="16" y1="268" x2="48" y2="250" stroke="red" stroke-width="8" opacity="0"></line><line x1="16" y1="268" x2="48" y2="250" stroke="#000000" stroke-width="2" stroke-linecap="round"></line></g></g><g><g cursor="cell"><line x1="416" y1="315" x2="320" y2="259" stroke="red" stroke-width="8" opacity="0"></line><line x1="416" y1="315" x2="320" y2="259" stroke="#000000" stroke-width="2" stroke-linecap="round"></line></g></g><g><g cursor="cell"><line x1="-112" y1="305" x2="64" y2="407" stroke="red" stroke-width="8" opacity="0"></line><line x1="-112" y1="305" x2="64" y2="407" stroke="#000000" stroke-width="2" stroke-linecap="round"></line></g></g><g><g cursor="cell"><line x1="64" y1="407" x2="16" y2="435" stroke="red" stroke-width="8" opacity="0"></line><line x1="64" y1="407" x2="16" y2="435" stroke="#000000" stroke-width="2" stroke-linecap="round"></line></g></g><g><g cursor="cell"><line x1="-288" y1="407" x2="-256" y2="389" stroke="red" stroke-width="8" opacity="0"></line><line x1="-288" y1="407" x2="-256" y2="389" stroke="#000000" stroke-width="2" stroke-linecap="round"></line></g></g></g><g pointer-events="auto"><g opacity="1"><g id="e9a7ca24-3102-43ee-8a64-6ddf6971e4ee" transform="translate(0 0)"><svg x="96" y="93" height="111" width="128" fill-rule="evenodd"><path d="M64 74v37l64-37V37L64 74z" fill="#b8b8bb"></path><path d="M0 37v37l64 37V74L0 37z" fill="#d2d2d4"></path><path d="M0 37L64 0l64 37-64 37L0 37z" fill="#ececed"></path><path d="M64 73.407l62.111-35.86.514.889-62.487 36.078h-.276L.743 38.072l.514-.89L64 73.407z" fill="#83838a"></path><path d="M63.486 74h1.027v36h-1.027z" fill="#83838a"></path><path d="M128 37v37l-64 37L0 74V37L64 0l64 37zM2.054 38.185v34.63L64 108.627l61.946-35.812v-34.63L64 2.373 2.054 38.185z" fill="#000000"></path></svg><svg x="154" y="111" width="54" height="36" style="overflow: visible; cursor: default;"><rect transform="matrix(0.707 0.409 -0.707 0.409 0 0)" width="54" height="36" rx="5" ry="5" fill="#4286c5"></rect><text transform="matrix(0.707 0.409 -0.707 0.409 0 0)" font-family="Open Sans" text-anchor="middle" x="50%" font-weight="normal" font-size="20pt" y="80%" fill="#ffffff"><tspan>T3</tspan></text></svg></g></g><g opacity="1"><g id="8d285781-b093-46fa-827c-f84873815834" transform="translate(0 0)"><svg x="520" y="321" height="95.068" width="63" viewBox="0 0 16.669 25.153"><path d="M16.668 22.903q0 1.64-.864 2.091-.865.451-2.297-.376L3.161 18.645q-1.433-.827-2.297-2.276Q.001 14.921 0 13.28q0-.723.042-1.39.042-.666.166-1.394.124-.727.313-1.302.19-.575.51-1.039.319-.464.733-.683.414-.22 1.012-.147.598.073 1.32.49.107.06.497.58.391.52.882 1.165.491.646 1.279 1.394.788.75 1.58 1.207.793.458 1.58.618.788.161 1.28.083.49-.079.881-.147.39-.069.497-.007.722.416 1.32 1.035.598.619 1.013 1.315.414.697.734 1.531t.509 1.627q.19.793.313 1.664.124.872.166 1.586.042.713.042 1.438zM12.88 8.51q0 2.173-1.332 2.942-1.332.769-3.214-.318-1.882-1.086-3.214-3.393Q3.79 5.434 3.79 3.26q0-2.173 1.331-2.942 1.332-.77 3.214.317t3.214 3.394q1.332 2.306 1.332 4.48z" fill="#000" stroke="#000000" stroke-width=".268"></path></svg></g></g><g opacity="1"><g id="4c3a4236-714b-46d0-876d-018201268f9b" transform="translate(0 0)"><svg x="-112" y="231" height="111" width="128" fill-rule="evenodd"><path d="M64 74v37l64-37V37L64 74z" fill="#b8b8bb"></path><path d="M0 37v37l64 37V74L0 37z" fill="#d2d2d4"></path><path d="M0 37L64 0l64 37-64 37L0 37z" fill="#ececed"></path><path d="M64 73.407l62.111-35.86.514.889-62.487 36.078h-.276L.743 38.072l.514-.89L64 73.407z" fill="#83838a"></path><path d="M63.486 74h1.027v36h-1.027z" fill="#83838a"></path><path d="M128 37v37l-64 37L0 74V37L64 0l64 37zM2.054 38.185v34.63L64 108.627l61.946-35.812v-34.63L64 2.373 2.054 38.185z" fill="#000000"></path></svg><svg x="-54" y="250" width="54" height="36" style="overflow: visible; cursor: default;"><rect transform="matrix(0.707 0.409 -0.707 0.409 0 0)" width="54" height="36" rx="5" ry="5" fill="#4286c5"></rect><text transform="matrix(0.707 0.409 -0.707 0.409 0 0)" font-family="Open Sans" text-anchor="middle" x="50%" font-weight="normal" font-size="20pt" y="80%" fill="#ffffff"><tspan>T3</tspan></text></svg></g></g><g opacity="1"><g id="1897cdca-09ea-4cdd-9bf1-db11daf203a8" transform="translate(0 0)"><svg x="64" y="333" height="111" width="128" fill-rule="evenodd"><path d="M64 74v37l64-37V37L64 74z" fill="#b8b8bb"></path><path d="M0 37v37l64 37V74L0 37z" fill="#d2d2d4"></path><path d="M0 37L64 0l64 37-64 37L0 37z" fill="#ececed"></path><path d="M64 73.407l62.111-35.86.514.889-62.487 36.078h-.276L.743 38.072l.514-.89L64 73.407z" fill="#83838a"></path><path d="M63.486 74h1.027v36h-1.027z" fill="#83838a"></path><path d="M128 37v37l-64 37L0 74V37L64 0l64 37zM2.054 38.185v34.63L64 108.627l61.946-35.812v-34.63L64 2.373 2.054 38.185z" fill="#000000"></path></svg><svg x="122" y="352" width="54" height="36" style="overflow: visible; cursor: default;"><rect transform="matrix(0.707 0.409 -0.707 0.409 0 0)" width="54" height="36" rx="5" ry="5" fill="#4286c5"></rect><text transform="matrix(0.707 0.409 -0.707 0.409 0 0)" font-family="Open Sans" text-anchor="middle" x="50%" font-weight="normal" font-size="20pt" y="80%" fill="#ffffff"><tspan>T3</tspan></text></svg></g></g><g opacity="1"><g id="16db9946-7e18-40e3-8abf-98f15321ae92" transform="translate(0 0)"><svg x="-286" y="169" height="108.05" width="123" viewBox="0 0 32.544 28.588"><path d="M10.115 6.02v14.218l7.873-4.318V1.474z" fill="#b8b8bb" fill-rule="evenodd" stroke="#83838a" stroke-width=".268"></path><path d="M.265 2.228l9.85 3.791v14.219l-9.85-8.531z" fill="#d2d2d4" fill-rule="evenodd" stroke="#83838a" stroke-width=".265"></path><path d="M10.115 6.02l7.873-4.546L3.548.332.265 2.228z" fill="#ececed" fill-rule="evenodd" stroke="#83838a" stroke-width=".265"></path><path d="M.265 11.707l9.85 8.53 7.873-4.317V1.474L3.392.271.265 2.076z" fill="none" fill-rule="evenodd" stroke="#000000" stroke-width=".529"></path><path d="M22.429 3.65L14.22 8.39l14.828 10.397 3.231-1.866z" fill="#ececed" fill-rule="evenodd" stroke="#83838a" stroke-width=".268"></path><path d="M14.22 8.39V22.61l14.777 5.687.051-9.509z" fill="#d2d2d4" fill-rule="evenodd" stroke="#83838a" stroke-width=".265"></path><path d="M29.048 18.787l3.231-1.866V26.4l-3.282 1.897z" fill="#b8b8bb" fill-rule="evenodd" stroke="#83838a" stroke-width=".265"></path><path d="M22.429 3.65L14.22 8.39V22.61l14.777 5.687 3.282-1.897v-9.478z" fill="none" fill-rule="evenodd" stroke="#000000" stroke-width=".529"></path><path d="M18.582 19.764l-1.527-.59c-.28-.108-.509-.02-.509.197v1.179c0 .217.228.48.51.59l1.526.589c.28.108.509.02.509-.197v-1.178c0-.217-.228-.481-.51-.59zm-.382-1.13l3.053 1.18v.589l.763.294v-.589l3.053 1.179v.589l.763.295v-.707c0-.26-.274-.578-.61-.708l-3.206-1.237v-.786l.636.245c.281.109.509.02.509-.196v-1.179c0-.217-.228-.48-.509-.589l-2.035-.786c-.281-.108-.509-.02-.509.197v1.178c0 .217.228.481.509.59l.636.245v.786l-3.205-1.238c-.337-.13-.611-.024-.611.236v.707l.763.295zm4.198 2.603l-1.527-.589c-.28-.108-.508-.02-.508.197v1.178c0 .217.227.481.508.59l1.527.589c.28.108.508.02.508-.196v-1.18c0-.216-.227-.48-.508-.589zm3.816 1.474l-1.527-.59c-.28-.108-.509-.02-.509.197v1.179c0 .217.228.48.51.589l1.526.59c.28.108.508.02.508-.197V23.3c0-.217-.227-.48-.508-.59z" fill="#4286c5" stroke-width=".014"></path></svg></g></g><g opacity="1"><g id="0015e92d-fbb9-423f-93d1-9d19a3461cfb" transform="translate(0 0)"><svg x="-446" y="243" height="108.05" width="123" viewBox="0 0 32.544 28.588"><path d="M10.115 6.02v14.218l7.873-4.318V1.474z" fill="#b8b8bb" fill-rule="evenodd" stroke="#83838a" stroke-width=".268"></path><path d="M.265 2.228l9.85 3.791v14.219l-9.85-8.531z" fill="#d2d2d4" fill-rule="evenodd" stroke="#83838a" stroke-width=".265"></path><path d="M10.115 6.02l7.873-4.546L3.548.332.265 2.228z" fill="#ececed" fill-rule="evenodd" stroke="#83838a" stroke-width=".265"></path><path d="M.265 11.707l9.85 8.53 7.873-4.317V1.474L3.392.271.265 2.076z" fill="none" fill-rule="evenodd" stroke="#000000" stroke-width=".529"></path><path d="M22.429 3.65L14.22 8.39l14.828 10.397 3.231-1.866z" fill="#ececed" fill-rule="evenodd" stroke="#83838a" stroke-width=".268"></path><path d="M14.22 8.39V22.61l14.777 5.687.051-9.509z" fill="#d2d2d4" fill-rule="evenodd" stroke="#83838a" stroke-width=".265"></path><path d="M29.048 18.787l3.231-1.866V26.4l-3.282 1.897z" fill="#b8b8bb" fill-rule="evenodd" stroke="#83838a" stroke-width=".265"></path><path d="M22.429 3.65L14.22 8.39V22.61l14.777 5.687 3.282-1.897v-9.478z" fill="none" fill-rule="evenodd" stroke="#000000" stroke-width=".529"></path><path d="M25.604 20.872c-.071-.975-.928-2.116-1.982-2.599a2.547 2.547 0 0 0-.398-.144c-.566-.91-1.446-1.74-2.441-2.195-1.501-.687-2.76-.293-3.057.872-1.062-.091-1.77.532-1.77 1.597 0 1.436 1.27 3.181 2.84 3.899l5.961 2.73c1.41.645 2.555.121 2.555-1.17 0-1.004-.695-2.2-1.708-2.99zm-.847 3.38l-5.962-2.73c-1.098-.502-1.987-1.723-1.987-2.729 0-.916.74-1.336 1.704-1.022v-.018c0-1.148 1.016-1.613 2.27-1.04.95.435 1.763 1.34 2.102 2.252.198-.065.456-.041.738.088.626.287 1.135.986 1.135 1.56a.657.657 0 0 1-.156.454c.052.019.105.042.156.065.94.43 1.704 1.479 1.704 2.34 0 .86-.763 1.21-1.704.78z" fill="#4286c5" stroke-width=".017"></path></svg></g></g><g opacity="1"><g id="4fa727c9-36b9-4773-bf99-258500555073" transform="translate(0 0)"><svg x="-464" y="546" height="94" width="97" fill-rule="evenodd"><path d="M0 18.6v18.6l32.333 18.6h32.334L97 37.2V18.6L64.667 0H32.333L0 18.6z" fill="#ececed"></path><path d="M64.667 55.8L97 37.2v37.2L64.667 93V55.8z" fill="#b8b8bb"></path><path d="M32.333 55.8h32.334V93H32.333V55.8zM0 37.2v37.2L32.333 93V55.8L0 37.2z" fill="#d2d2d4"></path><g fill="none" stroke="#83838a" stroke-width="1.04"><path d="M.955 37.877L32.333 55.8h32.334l31.378-17.923M32.333 55.8v36.211M64.667 55.8v36.574"></path></g><path d="M97 18.6v55.8L64.667 93H32.333L0 74.4V18.6L32.333 0h32.334L97 18.6zM32.865 1.989L1.989 19.751v53.498l30.876 17.762h31.27l30.876-17.762V19.751L64.135 1.989h-31.27z" fill="#000000"></path><path d="M69.912 15.583c11.818 6.798 11.818 17.836 0 24.635-11.817 6.798-31.007 6.798-42.824 0-11.818-6.799-11.818-17.837 0-24.635 11.817-6.799 31.007-6.799 42.824 0z" fill="#4286c5"></path><path d="M49.584 14.774c1.824 1.049 1.824 2.753 0 3.802-1.824 1.05-4.786 1.05-6.61 0-1.824-1.049-1.824-2.753 0-3.802 1.824-1.05 4.786-1.05 6.61 0zM60.451 21.025c1.825 1.049 1.825 2.753 0 3.803-1.824 1.049-4.786 1.049-6.61 0-1.824-1.05-1.824-2.754 0-3.803s4.786-1.049 6.61 0zM71.319 27.276c1.824 1.05 1.824 2.754 0 3.803-1.825 1.049-4.787 1.049-6.611 0-1.824-1.049-1.824-2.753 0-3.803 1.824-1.049 4.786-1.049 6.611 0zM38.497 33.654c1.824 1.05 1.824 2.754 0 3.803-1.825 1.05-4.787 1.05-6.611 0-1.824-1.049-1.824-2.753 0-3.803 1.824-1.049 4.786-1.049 6.611 0z" fill="#ffffff"></path><path d="M47.458 15.878c.453.26.393.717-.133 1.02-.526.303-1.32.337-1.773.076-.452-.26-.392-.717.133-1.019.526-.303 1.321-.337 1.773-.077z" fill="#ffffff"></path><path d="M48.111 15.621c1.012.582 1.012 1.526 0 2.108-1.011.582-2.653.582-3.664 0-1.012-.582-1.012-1.526 0-2.108 1.011-.582 2.653-.582 3.664 0zM58.978 21.872c1.012.582 1.012 1.527 0 2.108-1.011.582-2.653.582-3.664 0-1.012-.581-1.012-1.526 0-2.108 1.011-.581 2.653-.581 3.664 0zM69.846 28.124c1.011.581 1.011 1.526 0 2.108-1.012.582-2.654.582-3.665 0-1.011-.582-1.011-1.527 0-2.108 1.011-.582 2.653-.582 3.665 0z" fill="#4286c5"></path><path d="M37.024 34.502c1.011.582 1.011 1.526 0 2.108-1.012.582-2.654.582-3.665 0-1.011-.582-1.011-1.526 0-2.108 1.011-.582 2.653-.582 3.665 0z" fill="#ffffff"></path><g fill="#ffffff"><path d="M52.301 25.172L37.719 33.56l.482.834 14.584-8.388-.484-.834z"></path><path d="M46.993 26.089l6.654-1.146-4.324 5.168c.189-1.691-.757-3.313-2.33-4.022z" stroke="#ffffff" stroke-width=".36"></path></g><g fill="#ffffff"><path d="M43.488 19.937l-6.057 13.797.886.387 6.056-13.798-.885-.386z"></path><path d="M39.76 23.812l4.676-4.854-.405 6.716c-.855-1.474-2.582-2.221-4.271-1.862z" stroke="#ffffff" stroke-width=".36"></path></g><g fill="#ffffff"><path d="M61.953 30.061l-23.985 3.483.14.955 23.985-3.486-.14-.952z"></path><path d="M56.68 28.957l6.608 1.387-5.936 3.209c.804-1.503.526-3.358-.672-4.596h0z" stroke="#ffffff" stroke-width=".36"></path></g><path d="M37.96 33.977l13.12-7.547M37.873 33.927l5.792-13.134M38.037 34.022l22.478-3.281" fill="#ffffff" stroke="#ffffff" stroke-width="1.93"></path></svg></g></g><g opacity="1"><g id="2685515d-0fdf-4c31-b26d-7cf5ad8c321d" transform="translate(0 0)"><svg x="-616" y="626" height="95.068" width="63" viewBox="0 0 16.669 25.153"><path d="M16.668 22.903q0 1.64-.864 2.091-.865.451-2.297-.376L3.161 18.645q-1.433-.827-2.297-2.276Q.001 14.921 0 13.28q0-.723.042-1.39.042-.666.166-1.394.124-.727.313-1.302.19-.575.51-1.039.319-.464.733-.683.414-.22 1.012-.147.598.073 1.32.49.107.06.497.58.391.52.882 1.165.491.646 1.279 1.394.788.75 1.58 1.207.793.458 1.58.618.788.161 1.28.083.49-.079.881-.147.39-.069.497-.007.722.416 1.32 1.035.598.619 1.013 1.315.414.697.734 1.531t.509 1.627q.19.793.313 1.664.124.872.166 1.586.042.713.042 1.438zM12.88 8.51q0 2.173-1.332 2.942-1.332.769-3.214-.318-1.882-1.086-3.214-3.393Q3.79 5.434 3.79 3.26q0-2.173 1.331-2.942 1.332-.77 3.214.317t3.214 3.394q1.332 2.306 1.332 4.48z" fill="#000" stroke="#000000" stroke-width=".268"></path></svg></g></g></g><g pointer-events="auto"></g><g pointer-events="auto"><g opacity="1"><g id="9fd806e5-adf8-44be-a1f0-370f89655e5e" transform="translate(0 0)"><svg x="-496" y="657" overflow="visible"><g transform="scale(0.8944271909999159) matrix(0.707 0.409 -0.707 0.409 0 0)"><circle cx="0" cy="0" fill="#000000" r="23"></circle><svg width="21" height="32" x="-10.5" y="-16" style="fill: rgb(255, 255, 255);"><svg xmlns="http://www.w3.org/2000/svg" width="21" height="32" viewBox="0 0 21 32"><path d="M5.714 13.714h9.143v-3.429c0-2.518-2.054-4.571-4.571-4.571s-4.571 2.054-4.571 4.571v3.429zm14.857 1.715v10.286c0 .946-.768 1.714-1.714 1.714H1.714A1.715 1.715 0 0 1 0 25.715V15.429c0-.946.768-1.714 1.714-1.714h.571v-3.429c0-4.393 3.607-8 8-8s8 3.607 8 8v3.429h.571c.946 0 1.714.768 1.714 1.714z"></path></svg></svg></g></svg></g></g><g opacity="1"><g id="c6d7368b-f259-4c5a-8e8c-c1dbb1e6d5c5" transform="translate(0 0)"><svg x="-160" y="333" overflow="visible"><g transform="scale(1.2074767078498865) matrix(0.707 0.409 -0.707 0.409 0 0)"><circle cx="0" cy="0" fill="transparent" r="17.5"></circle><svg width="35" height="35" x="-17.5" y="-17.5" style=""><svg xmlns="http://www.w3.org/2000/svg" viewBox="0 0 35 35"><g id="Working"><path fill="#147eba" d="M0 0h35v35H0z"></path><path d="M17.51 17.83a2.38 2.38 0 0 0-.5 4.71v3.29h1v-3.29a2.38 2.38 0 0 0-.5-4.71zm0 3.76a1.38 1.38 0 1 1 1.38-1.38 1.38 1.38 0 0 1-1.38 1.38z" fill="#fff"></path><path d="M22.72 14.3v-2.67a5.22 5.22 0 1 0-10.44 0v2.67H9.14v14.29h16.72V14.3zm-9.44-2.67a4.22 4.22 0 1 1 8.44 0v2.67h-8.44zm11.58 16H10.14V15.3h14.72z" fill="#fff"></path></g></svg></svg></g></svg></g></g><g opacity="1"><g id="f4e3098d-3ebd-4f54-bb24-1d0bd861d799" transform="translate(0 0)"><svg x="-288" y="407" overflow="visible"><g transform="scale(1.2074767078498865) matrix(0.707 0.409 -0.707 0.409 0 0)"><circle cx="0" cy="0" fill="transparent" r="17.5"></circle><svg width="35" height="35" x="-17.5" y="-17.5" style=""><svg xmlns="http://www.w3.org/2000/svg" viewBox="0 0 35 35"><g id="Working"><path fill="#248814" d="M0 .02h35v35H0z"></path><path d="M17.51 17.84a2.39 2.39 0 0 0-.5 4.72v3.29h1v-3.29a2.39 2.39 0 0 0-.5-4.72zm0 3.77a1.39 1.39 0 1 1 1.38-1.38 1.38 1.38 0 0 1-1.38 1.38z" fill="#fff"></path><path d="M22.72 14.32v-2.67a5.22 5.22 0 1 0-10.44 0v2.67H9.14v14.29h16.72V14.32zm-9.44-2.67a4.22 4.22 0 1 1 8.44 0v2.67h-8.44zm11.58 16H10.14V15.32h14.72z" fill="#fff"></path></g></svg></svg></g></svg></g></g><g opacity="1"><g id="773f09ff-6393-4f21-b3ab-619d6867d4fa" transform="translate(0 0)"><svg x="-112" y="509" overflow="visible"><g transform="scale(1.2074767078498865) matrix(0.707 0.409 -0.707 0.409 0 0)"><circle cx="0" cy="0" fill="transparent" r="17.5"></circle><svg width="35" height="35" x="-17.5" y="-17.5" style=""><svg xmlns="http://www.w3.org/2000/svg" viewBox="0 0 35 35"><g id="Working"><path fill="#248814" d="M0 .02h35v35H0z"></path><path d="M17.51 17.84a2.39 2.39 0 0 0-.5 4.72v3.29h1v-3.29a2.39 2.39 0 0 0-.5-4.72zm0 3.77a1.39 1.39 0 1 1 1.38-1.38 1.38 1.38 0 0 1-1.38 1.38z" fill="#fff"></path><path d="M22.72 14.32v-2.67a5.22 5.22 0 1 0-10.44 0v2.67H9.14v14.29h16.72V14.32zm-9.44-2.67a4.22 4.22 0 1 1 8.44 0v2.67h-8.44zm11.58 16H10.14V15.32h14.72z" fill="#fff"></path></g></svg></svg></g></svg></g></g><g opacity="1"><g id="676cdc46-cac2-4bea-a0ef-c92e11f4e883" transform="translate(0 0)"><svg x="16" y="435" overflow="visible"><g transform="scale(1.2074767078498865) matrix(0.707 0.409 -0.707 0.409 0 0)"><circle cx="0" cy="0" fill="transparent" r="17.5"></circle><svg width="35" height="35" x="-17.5" y="-17.5" style=""><svg xmlns="http://www.w3.org/2000/svg" viewBox="0 0 35 35"><g id="Working"><path fill="#147eba" d="M0 0h35v35H0z"></path><path d="M17.51 17.83a2.38 2.38 0 0 0-.5 4.71v3.29h1v-3.29a2.38 2.38 0 0 0-.5-4.71zm0 3.76a1.38 1.38 0 1 1 1.38-1.38 1.38 1.38 0 0 1-1.38 1.38z" fill="#fff"></path><path d="M22.72 14.3v-2.67a5.22 5.22 0 1 0-10.44 0v2.67H9.14v14.29h16.72V14.3zm-9.44-2.67a4.22 4.22 0 1 1 8.44 0v2.67h-8.44zm11.58 16H10.14V15.3h14.72z" fill="#fff"></path></g></svg></svg></g></svg></g></g><g opacity="1"><g id="6278f9cc-083f-4837-b105-08a37041d3ce" transform="translate(0 0)"><svg x="112" y="102" overflow="visible"><g transform="scale(1.2074767078498865) matrix(0.707 0.409 -0.707 0.409 0 0)"><circle cx="0" cy="0" fill="transparent" r="17.5"></circle><svg width="35" height="35" x="-17.5" y="-17.5" style=""><svg xmlns="http://www.w3.org/2000/svg" viewBox="0 0 35 35"><g id="Working"><path fill="#248814" d="M0 .02h35v35H0z"></path><path d="M17.51 17.84a2.39 2.39 0 0 0-.5 4.72v3.29h1v-3.29a2.39 2.39 0 0 0-.5-4.72zm0 3.77a1.39 1.39 0 1 1 1.38-1.38 1.38 1.38 0 0 1-1.38 1.38z" fill="#fff"></path><path d="M22.72 14.32v-2.67a5.22 5.22 0 1 0-10.44 0v2.67H9.14v14.29h16.72V14.32zm-9.44-2.67a4.22 4.22 0 1 1 8.44 0v2.67h-8.44zm11.58 16H10.14V15.32h14.72z" fill="#fff"></path></g></svg></svg></g></svg></g></g><g opacity="1"><g id="8be195a0-41ad-4c60-b94b-46ed77909075" transform="translate(0 0)"><svg x="416" y="315" overflow="visible"><g transform="scale(0.8944271909999159) matrix(0.707 0.409 -0.707 0.409 0 0)"><circle cx="0" cy="0" fill="#000000" r="23"></circle><svg width="21" height="32" x="-10.5" y="-16" style="fill: rgb(255, 255, 255);"><svg xmlns="http://www.w3.org/2000/svg" width="21" height="32" viewBox="0 0 21 32"><path d="M5.714 13.714h9.143v-3.429c0-2.518-2.054-4.571-4.571-4.571s-4.571 2.054-4.571 4.571v3.429zm14.857 1.715v10.286c0 .946-.768 1.714-1.714 1.714H1.714A1.715 1.715 0 0 1 0 25.715V15.429c0-.946.768-1.714 1.714-1.714h.571v-3.429c0-4.393 3.607-8 8-8s8 3.607 8 8v3.429h.571c.946 0 1.714.768 1.714 1.714z"></path></svg></svg></g></svg></g></g><g opacity="1"><g id="b2f7a617-2ef6-4423-8231-62b94f93617e" transform="translate(0 0)"><svg x="-672" y="481" overflow="visible"><g transform="scale(1.2074767078498865) matrix(0.707 0.409 -0.707 0.409 0 0)"><circle cx="0" cy="0" fill="transparent" r="17.5"></circle><svg width="35" height="35" x="-17.5" y="-17.5" style=""><svg xmlns="http://www.w3.org/2000/svg" viewBox="0 0 35 35"><g id="Working"><path fill="#248814" d="M0 0h35v35H0z"></path><path d="M19.85 17.69h-.74V17a2.15 2.15 0 0 0-4.29 0v.67h-.74a.5.5 0 0 0-.5.5V22a.5.5 0 0 0 .5.5h5.77a.5.5 0 0 0 .5-.5v-3.81a.5.5 0 0 0-.5-.5zm-4-.67a1.15 1.15 0 0 1 2.29 0v.67h-2.32zm3.53 4.43h-4.8v-2.76h4.77z" fill="#fff"></path><path d="M26.42 16.09A3.67 3.67 0 0 0 24 12.77a3 3 0 0 0-2.76.58A7.86 7.86 0 0 0 19.63 11 6.79 6.79 0 0 0 12 9.5a7.12 7.12 0 0 0-4.06 6.29v.43A4.73 4.73 0 0 0 4.5 21v.4a5.07 5.07 0 0 0 5.11 4.66h16.25s4.64-.4 4.64-5.06a4.9 4.9 0 0 0-4.08-4.91zm-.59 9H9.62a4.06 4.06 0 0 1-4.11-3.73v-.33a3.8 3.8 0 0 1 3.06-3.94.51.51 0 0 0 .37-.55 5.85 5.85 0 0 1 0-.73 6.17 6.17 0 0 1 3.45-5.37 6.09 6.09 0 0 1 2.4-.52 6 6 0 0 1 4.18 1.83 7.06 7.06 0 0 1 1.64 2.69.5.5 0 0 0 .87.13 2.08 2.08 0 0 1 2.26-.82 2.81 2.81 0 0 1 1.76 2.7.49.49 0 0 0 .4.56 4.07 4.07 0 0 1 0 8.1z" fill="#fff"></path></g></svg></svg></g></svg></g></g><g opacity="1"><g id="feafbd92-ef0e-4e16-a3a7-1e7fd170c3af" transform="translate(0 0)"><svg x="-192" y="870" overflow="visible"><g transform="scale(1.2074767078498865) matrix(0.707 0.409 -0.707 0.409 0 0)"><circle cx="0" cy="0" fill="transparent" r="17.5"></circle><svg width="35" height="35" x="-17.5" y="-17.5" style=""><svg xmlns="http://www.w3.org/2000/svg" viewBox="0 0 35 35"><g id="Working"><path fill="#248814" d="M0 .02h35v35H0z"></path><path d="M17.51 17.84a2.39 2.39 0 0 0-.5 4.72v3.29h1v-3.29a2.39 2.39 0 0 0-.5-4.72zm0 3.77a1.39 1.39 0 1 1 1.38-1.38 1.38 1.38 0 0 1-1.38 1.38z" fill="#fff"></path><path d="M22.72 14.32v-2.67a5.22 5.22 0 1 0-10.44 0v2.67H9.14v14.29h16.72V14.32zm-9.44-2.67a4.22 4.22 0 1 1 8.44 0v2.67h-8.44zm11.58 16H10.14V15.32h14.72z" fill="#fff"></path></g></svg></svg></g></svg></g></g><g opacity="1"><g id="44b82864-3e03-46b4-8e49-e01e7d0976a2" transform="translate(0 0)"><svg x="320" y="555" overflow="visible"><g transform="scale(1.2074767078498865) matrix(0.707 0.409 -0.707 0.409 0 0)"><circle cx="0" cy="0" fill="transparent" r="17.5"></circle><svg width="35" height="35" x="-17.5" y="-17.5" style=""><svg xmlns="http://www.w3.org/2000/svg" viewBox="0 0 35 35"><g id="Working"><path fill="#248814" d="M0 .02h35v35H0z"></path><path d="M17.51 17.84a2.39 2.39 0 0 0-.5 4.72v3.29h1v-3.29a2.39 2.39 0 0 0-.5-4.72zm0 3.77a1.39 1.39 0 1 1 1.38-1.38 1.38 1.38 0 0 1-1.38 1.38z" fill="#fff"></path><path d="M22.72 14.32v-2.67a5.22 5.22 0 1 0-10.44 0v2.67H9.14v14.29h16.72V14.32zm-9.44-2.67a4.22 4.22 0 1 1 8.44 0v2.67h-8.44zm11.58 16H10.14V15.32h14.72z" fill="#fff"></path></g></svg></svg></g></svg></g></g></g><g pointer-events="auto"><g opacity="1"><g id="1795d0b6-1f55-43b4-adbd-be2def759bde" transform="translate(0 0)"><svg x="-384" y="463" overflow="visible"><text stroke="#000000" stroke-width="2" font-family="Open Sans" y="65" font-size="50pt" fill="#ffffff" font-weight="bold" transform="matrix(0.707 0.409 -0.707 0.409 0 0)" xml:space="preserve"><tspan x="8" dy="0">A</tspan></text><text font-family="Open Sans" y="65" font-size="50pt" fill="#ffffff" font-weight="bold" transform="matrix(0.707 0.409 -0.707 0.409 0 0)" xml:space="preserve"><tspan x="8" dy="0">A</tspan></text></svg></g></g><g opacity="1"><g id="34e3c7b8-71a7-4231-8aab-5f31312f0f64" transform="translate(0 0)"><svg x="-560" y="472" overflow="visible"><text stroke="#ffffff" stroke-width="4" font-family="Open Sans" y="30.799999999999997" font-size="20pt" fill="#f5b720" font-weight="bold" transform="matrix(0.707 0.409 -0.707 0.409 0 0)" xml:space="preserve"><tspan x="8" dy="0">Elastic Load</tspan><tspan x="8" dy="1.1em">Balancing</tspan></text><text font-family="Open Sans" y="30.799999999999997" font-size="20pt" fill="#f5b720" font-weight="bold" transform="matrix(0.707 0.409 -0.707 0.409 0 0)" xml:space="preserve"><tspan x="8" dy="0">Elastic Load</tspan><tspan x="8" dy="1.1em">Balancing</tspan></text></svg></g></g><g opacity="1"><g id="31910fa9-cc37-4ab1-8c23-6a79e72e3cc8" transform="translate(0 0)"><svg x="-416" y="444" overflow="visible"><text stroke="#000000" stroke-width="2" font-family="Open Sans" y="25.099999999999998" font-size="15pt" fill="#ffffff" font-weight="bold" transform="matrix(0.707 -0.409 0.707 0.409 0 0)" xml:space="preserve"><tspan x="8" dy="0">Availability Zone</tspan></text><text font-family="Open Sans" y="25.099999999999998" font-size="15pt" fill="#ffffff" font-weight="bold" transform="matrix(0.707 -0.409 0.707 0.409 0 0)" xml:space="preserve"><tspan x="8" dy="0">Availability Zone</tspan></text></svg></g></g><g opacity="1"><g id="4d88fce8-b149-40cc-80f8-9fbc14dd150c" transform="translate(0 0)"><svg x="-144" y="601" overflow="visible"><text stroke="#000000" stroke-width="2" font-family="Open Sans" y="25.099999999999998" font-size="15pt" fill="#ffffff" font-weight="bold" transform="matrix(0.707 -0.409 0.707 0.409 0 0)" xml:space="preserve"><tspan x="8" dy="0">Availability Zone</tspan></text><text font-family="Open Sans" y="25.099999999999998" font-size="15pt" fill="#ffffff" font-weight="bold" transform="matrix(0.707 -0.409 0.707 0.409 0 0)" xml:space="preserve"><tspan x="8" dy="0">Availability Zone</tspan></text></svg></g></g><g opacity="1"><g id="751e768f-8fa5-4208-825c-ebd08caa225e" transform="translate(0 0)"><svg x="-416" y="444" overflow="visible"><text stroke="#000000" stroke-width="2" font-family="Open Sans" y="36.5" font-size="25pt" fill="#ffffff" font-weight="bold" transform="matrix(0.707 0.409 -0.707 0.409 0 0)" xml:space="preserve"><tspan x="8" dy="0">AZ</tspan></text><text font-family="Open Sans" y="36.5" font-size="25pt" fill="#ffffff" font-weight="bold" transform="matrix(0.707 0.409 -0.707 0.409 0 0)" xml:space="preserve"><tspan x="8" dy="0">AZ</tspan></text></svg></g></g><g opacity="1"><g id="3c67307a-f38c-4062-877c-14ad8cb6d261" transform="translate(0 0)"><svg x="-160" y="592" overflow="visible"><text stroke="#000000" stroke-width="2" font-family="Open Sans" y="65" font-size="50pt" fill="#ffffff" font-weight="bold" transform="matrix(0.707 0.409 -0.707 0.409 0 0)" xml:space="preserve"><tspan x="8" dy="0">B</tspan></text><text font-family="Open Sans" y="65" font-size="50pt" fill="#ffffff" font-weight="bold" transform="matrix(0.707 0.409 -0.707 0.409 0 0)" xml:space="preserve"><tspan x="8" dy="0">B</tspan></text></svg></g></g><g opacity="1"><g id="a8d2e8fb-f21f-4378-8eef-961a99bcf879" transform="translate(0 0)"><svg x="-224" y="555" overflow="visible"><text stroke="#000000" stroke-width="2" font-family="Open Sans" y="36.5" font-size="25pt" fill="#ffffff" font-weight="bold" transform="matrix(0.707 0.409 -0.707 0.409 0 0)" xml:space="preserve"><tspan x="8" dy="0">AZ</tspan></text><text font-family="Open Sans" y="36.5" font-size="25pt" fill="#ffffff" font-weight="bold" transform="matrix(0.707 0.409 -0.707 0.409 0 0)" xml:space="preserve"><tspan x="8" dy="0">AZ</tspan></text></svg></g></g><g opacity="1"><g id="d9865047-f73f-49b1-a46c-65344ee60b78" transform="translate(0 0)"><svg x="-224" y="426" overflow="visible"><text stroke="#ffffff" stroke-width="0" font-family="Open Sans" y="28.52" font-size="18pt" fill="#f5b720" font-weight="bold" transform="matrix(0.707 0.409 -0.707 0.409 0 0)" xml:space="preserve"><tspan x="8" dy="0">Public </tspan><tspan x="8" dy="1.1em">Subnet</tspan></text><text font-family="Open Sans" y="28.52" font-size="18pt" fill="#f5b720" font-weight="bold" transform="matrix(0.707 0.409 -0.707 0.409 0 0)" xml:space="preserve"><tspan x="8" dy="0">Public </tspan><tspan x="8" dy="1.1em">Subnet</tspan></text></svg></g></g><g opacity="1"><g id="fc785798-c8f5-4582-8b55-5e8d91c8fe71" transform="translate(0 0)"><svg x="-128" y="518" overflow="visible"><text stroke="#ffffff" stroke-width="4" font-family="Open Sans" y="28.52" font-size="18pt" fill="#f5b720" font-weight="bold" transform="matrix(0.707 0.409 -0.707 0.409 0 0)" xml:space="preserve"><tspan x="8" dy="0">Public </tspan><tspan x="8" dy="1.1em">Subnet</tspan></text><text font-family="Open Sans" y="28.52" font-size="18pt" fill="#f5b720" font-weight="bold" transform="matrix(0.707 0.409 -0.707 0.409 0 0)" xml:space="preserve"><tspan x="8" dy="0">Public </tspan><tspan x="8" dy="1.1em">Subnet</tspan></text></svg></g></g><g opacity="1"><g id="23b65524-9a38-41b6-aa8a-3d4d9f8f5d9a" transform="translate(0 0)"><svg x="-128" y="333" overflow="visible"><text stroke="#ffffff" stroke-width="4" font-family="Open Sans" y="28.52" font-size="18pt" fill="#f5b720" font-weight="bold" transform="matrix(0.707 0.409 -0.707 0.409 0 0)" xml:space="preserve"><tspan x="8" dy="0">Private </tspan><tspan x="8" dy="1.1em">Subnet</tspan><tspan x="8" dy="1.1em">10.0.1.0/24</tspan></text><text font-family="Open Sans" y="28.52" font-size="18pt" fill="#f5b720" font-weight="bold" transform="matrix(0.707 0.409 -0.707 0.409 0 0)" xml:space="preserve"><tspan x="8" dy="0">Private </tspan><tspan x="8" dy="1.1em">Subnet</tspan><tspan x="8" dy="1.1em">10.0.1.0/24</tspan></text></svg></g></g><g opacity="1"><g id="4111fa6d-77f9-4770-afa3-f652c8199de0" transform="translate(0 0)"><svg x="48" y="435" overflow="visible"><text stroke="#ffffff" stroke-width="4" font-family="Open Sans" y="28.52" font-size="18pt" fill="#f5b720" font-weight="bold" transform="matrix(0.707 0.409 -0.707 0.409 0 0)" xml:space="preserve"><tspan x="8" dy="0">Private </tspan><tspan x="8" dy="1.1em">Subnet</tspan><tspan x="8" dy="1.1em">10.0.3.0/24</tspan></text><text font-family="Open Sans" y="28.52" font-size="18pt" fill="#f5b720" font-weight="bold" transform="matrix(0.707 0.409 -0.707 0.409 0 0)" xml:space="preserve"><tspan x="8" dy="0">Private </tspan><tspan x="8" dy="1.1em">Subnet</tspan><tspan x="8" dy="1.1em">10.0.3.0/24</tspan></text></svg></g></g><g opacity="1"><g id="fccedbda-6dce-464b-835e-cea64cfb6654" transform="translate(0 0)"><svg x="-320" y="204" overflow="visible"><text stroke="#ffffff" stroke-width="4" font-family="Open Sans" y="30.799999999999997" font-size="20pt" fill="#f5b720" font-weight="bold" transform="matrix(0.707 0.409 -0.707 0.409 0 0)" xml:space="preserve"><tspan x="8" dy="0">NAT Gateway</tspan></text><text font-family="Open Sans" y="30.799999999999997" font-size="20pt" fill="#f5b720" font-weight="bold" transform="matrix(0.707 0.409 -0.707 0.409 0 0)" xml:space="preserve"><tspan x="8" dy="0">NAT Gateway</tspan></text></svg></g></g><g opacity="1"><g id="fa12f522-8de4-49ce-afe7-7eff00e60839" transform="translate(0 0)"><svg x="-448" y="296" overflow="visible"><text stroke="#ffffff" stroke-width="4" font-family="Open Sans" y="30.799999999999997" font-size="20pt" fill="#f5b720" font-weight="bold" transform="matrix(0.707 0.409 -0.707 0.409 0 0)" xml:space="preserve"><tspan x="8" dy="0">Internet</tspan><tspan x="8" dy="1.1em">Gateway</tspan></text><text font-family="Open Sans" y="30.799999999999997" font-size="20pt" fill="#f5b720" font-weight="bold" transform="matrix(0.707 0.409 -0.707 0.409 0 0)" xml:space="preserve"><tspan x="8" dy="0">Internet</tspan><tspan x="8" dy="1.1em">Gateway</tspan></text></svg></g></g><g opacity="1"><g id="08a9cea1-6f77-430b-9095-fae8b180302f" transform="translate(0 0)"><svg x="48" y="120" overflow="visible"><text stroke="#ffffff" stroke-width="4" font-family="Open Sans" y="28.52" font-size="18pt" fill="#f5b720" font-weight="bold" transform="matrix(0.707 0.409 -0.707 0.409 0 0)" xml:space="preserve"><tspan x="8" dy="0">Bastion</tspan><tspan x="8" dy="1.1em">Subnet</tspan><tspan x="8" dy="1.1em">10.0.0.0/24</tspan></text><text font-family="Open Sans" y="28.52" font-size="18pt" fill="#f5b720" font-weight="bold" transform="matrix(0.707 0.409 -0.707 0.409 0 0)" xml:space="preserve"><tspan x="8" dy="0">Bastion</tspan><tspan x="8" dy="1.1em">Subnet</tspan><tspan x="8" dy="1.1em">10.0.0.0/24</tspan></text></svg></g></g><g opacity="1"><g id="12176d10-1061-423b-b355-f1bb38646ea6" transform="translate(0 0)"><svg x="416" y="241" overflow="visible"><text stroke="#ffffff" stroke-width="4" font-family="Open Sans" y="28.52" font-size="18pt" fill="#f5b720" font-weight="bold" transform="matrix(0.707 0.409 -0.707 0.409 0 0)" xml:space="preserve"><tspan x="8" dy="0">SSH ACCESS</tspan><tspan x="8" dy="1.1em">from Private IP</tspan></text><text font-family="Open Sans" y="28.52" font-size="18pt" fill="#f5b720" font-weight="bold" transform="matrix(0.707 0.409 -0.707 0.409 0 0)" xml:space="preserve"><tspan x="8" dy="0">SSH ACCESS</tspan><tspan x="8" dy="1.1em">from Private IP</tspan></text></svg></g></g><g opacity="1"><g id="1423a3cb-03bb-42bc-85d0-4e37356ed197" transform="translate(0 0)"><svg x="256" y="296" overflow="visible"><text stroke="#ffffff" stroke-width="4" font-family="Open Sans" y="28.52" font-size="18pt" fill="#f5b720" font-weight="bold" transform="matrix(0.707 0.409 -0.707 0.409 0 0)" xml:space="preserve"><tspan x="8" dy="0">SSH Access from</tspan><tspan x="8" dy="1.1em">Security Group</tspan></text><text font-family="Open Sans" y="28.52" font-size="18pt" fill="#f5b720" font-weight="bold" transform="matrix(0.707 0.409 -0.707 0.409 0 0)" xml:space="preserve"><tspan x="8" dy="0">SSH Access from</tspan><tspan x="8" dy="1.1em">Security Group</tspan></text></svg></g></g><g opacity="1"><g id="b9ce24db-7e56-487d-ad54-128e5cffaa49" transform="translate(0 0)"><svg x="-704" y="481" overflow="visible"><text stroke="#ffffff" stroke-width="4" font-family="Open Sans" y="30.799999999999997" font-size="20pt" fill="#f5b720" font-weight="bold" transform="matrix(0.707 0.409 -0.707 0.409 0 0)" xml:space="preserve"><tspan x="8" dy="0">Virtual </tspan><tspan x="8" dy="1.1em">Private </tspan><tspan x="8" dy="1.1em">Cloud</tspan></text><text font-family="Open Sans" y="30.799999999999997" font-size="20pt" fill="#f5b720" font-weight="bold" transform="matrix(0.707 0.409 -0.707 0.409 0 0)" xml:space="preserve"><tspan x="8" dy="0">Virtual </tspan><tspan x="8" dy="1.1em">Private </tspan><tspan x="8" dy="1.1em">Cloud</tspan></text></svg></g></g></g><g><g><g><circle cx="80" cy="435" r="16" fill="#4286c5" fill-opacity="0.25"></circle><circle cx="80" cy="435" r="12" fill="#4286c5"></circle><image xlink:href="/graphics/linkbadge.svg" x="72" y="427" width="16" height="16"></image></g></g><g><g><circle cx="176" cy="102" r="16" fill="#4286c5" fill-opacity="0.25"></circle><circle cx="176" cy="102" r="12" fill="#4286c5"></circle><image xlink:href="/graphics/linkbadge.svg" x="168" y="94" width="16" height="16"></image></g></g><g><g><circle cx="-608" cy="481" r="16" fill="#4286c5" fill-opacity="0.25"></circle><circle cx="-608" cy="481" r="12" fill="#4286c5"></circle><image xlink:href="/graphics/linkbadge.svg" x="-616" y="473" width="16" height="16"></image></g></g><g><g><circle cx="384" cy="555" r="16" fill="#4286c5" fill-opacity="0.25"></circle><circle cx="384" cy="555" r="12" fill="#4286c5"></circle><image xlink:href="/graphics/linkbadge.svg" x="376" y="547" width="16" height="16"></image></g></g><g><g><circle cx="-48" cy="231" r="16" fill="#4286c5" fill-opacity="0.25"></circle><circle cx="-48" cy="231" r="12" fill="#4286c5"></circle><image xlink:href="/graphics/linkbadge.svg" x="-56" y="223" width="16" height="16"></image></g></g><g><g><circle cx="-222" cy="169" r="16" fill="#4286c5" fill-opacity="0.25"></circle><circle cx="-222" cy="169" r="12" fill="#4286c5"></circle><image xlink:href="/graphics/linkbadge.svg" x="-230" y="161" width="16" height="16"></image></g></g><g><g><circle cx="480" cy="315" r="16" fill="#4286c5" fill-opacity="0.25"></circle><circle cx="480" cy="315" r="12" fill="#4286c5"></circle><image xlink:href="/graphics/linkbadge.svg" x="472" y="307" width="16" height="16"></image></g></g><g><g><circle cx="-224" cy="407" r="16" fill="#4286c5" fill-opacity="0.25"></circle><circle cx="-224" cy="407" r="12" fill="#4286c5"></circle><image xlink:href="/graphics/linkbadge.svg" x="-232" y="399" width="16" height="16"></image></g></g><g><g><circle cx="-96" cy="333" r="16" fill="#4286c5" fill-opacity="0.25"></circle><circle cx="-96" cy="333" r="12" fill="#4286c5"></circle><image xlink:href="/graphics/linkbadge.svg" x="-104" y="325" width="16" height="16"></image></g></g><g><g><circle cx="-48" cy="509" r="16" fill="#4286c5" fill-opacity="0.25"></circle><circle cx="-48" cy="509" r="12" fill="#4286c5"></circle><image xlink:href="/graphics/linkbadge.svg" x="-56" y="501" width="16" height="16"></image></g></g><g><g><circle cx="-400" cy="546" r="16" fill="#4286c5" fill-opacity="0.25"></circle><circle cx="-400" cy="546" r="12" fill="#4286c5"></circle><image xlink:href="/graphics/linkbadge.svg" x="-408" y="538" width="16" height="16"></image></g></g><g><g><circle cx="128" cy="333" r="16" fill="#4286c5" fill-opacity="0.25"></circle><circle cx="128" cy="333" r="12" fill="#4286c5"></circle><image xlink:href="/graphics/linkbadge.svg" x="120" y="325" width="16" height="16"></image></g></g><g><g><circle cx="160" cy="93" r="16" fill="#4286c5" fill-opacity="0.25"></circle><circle cx="160" cy="93" r="12" fill="#4286c5"></circle><image xlink:href="/graphics/linkbadge.svg" x="152" y="85" width="16" height="16"></image></g></g></g></g></svg>